<svg xmlns="http://www.w3.org/2000/svg" width="171.501" height="58.057" viewBox="0 0 171.501 58.057"><defs><style>.app-store-a{fill:#fff;}</style></defs><path d="M5.967,0H163.535A6.972,6.972,0,0,1,170.5,6.967V51.09a6.972,6.972,0,0,1-6.967,6.967H5.967A6.972,6.972,0,0,1-1,51.09V6.967A6.972,6.972,0,0,1,5.967,0Z" transform="translate(1 0)"/><g transform="translate(15.208 10.218)"><path class="app-store-a" d="M22.309,77.826a7.487,7.487,0,0,1,3.553-6.27,7.7,7.7,0,0,0-6.026-3.263c-2.531-.267-4.993,1.521-6.282,1.521-1.312,0-3.309-1.486-5.446-1.451a8.007,8.007,0,0,0-6.746,4.122c-2.914,5.051-.743,12.482,2.055,16.57,1.4,2,3.031,4.238,5.179,4.157,2.09-.081,2.88-1.335,5.4-1.335s3.24,1.335,5.423,1.289c2.253-.035,3.658-2.009,5.016-4.029a16.379,16.379,0,0,0,2.287-4.668,7.242,7.242,0,0,1-4.412-6.642" transform="translate(0.023 -60.339)"/><path class="app-store-a" d="M119.315,5.272A7.367,7.367,0,0,0,121,0a7.47,7.47,0,0,0-4.842,2.508,7.064,7.064,0,0,0-1.73,5.074,6.188,6.188,0,0,0,4.888-2.311" transform="translate(-101.105)"/></g><g transform="translate(53.401 25.406)"><path class="app-store-a" d="M14.368,20.05H11.442l-1.6-5.039H4.266L2.745,20.05H-.1L5.415,2.9H8.829l5.539,17.15Zm-5-7.153L7.912,8.427c-.151-.464-.441-1.533-.859-3.228H6.995c-.174.732-.441,1.811-.813,3.228L4.754,12.9Z" transform="translate(0.1 -2.656)"/><path class="app-store-a" d="M155.913,48.193a6.965,6.965,0,0,1-1.718,4.981,5.006,5.006,0,0,1-3.809,1.626,3.814,3.814,0,0,1-3.53-1.753v6.491H144.1V46.219c0-1.324-.035-2.671-.1-4.064h2.415l.151,1.962h.046a4.876,4.876,0,0,1,7.815-.488A6.727,6.727,0,0,1,155.913,48.193Zm-2.8.093a5.048,5.048,0,0,0-.813-2.973,2.814,2.814,0,0,0-2.392-1.219,2.918,2.918,0,0,0-1.846.673,3.109,3.109,0,0,0-1.08,1.765,3.759,3.759,0,0,0-.128.836v2.067a3.324,3.324,0,0,0,.824,2.276,2.744,2.744,0,0,0,2.148.929,2.835,2.835,0,0,0,2.415-1.2A5.245,5.245,0,0,0,153.115,48.286Z" transform="translate(-127.268 -37.128)"/><path class="app-store-a" d="M278.313,48.193a6.965,6.965,0,0,1-1.718,4.981,5.006,5.006,0,0,1-3.809,1.626,3.814,3.814,0,0,1-3.53-1.753v6.491H266.5V46.219c0-1.324-.035-2.671-.1-4.064h2.415l.151,1.962h.046a4.876,4.876,0,0,1,7.815-.488,6.727,6.727,0,0,1,1.486,4.563Zm-2.8.093a5.048,5.048,0,0,0-.813-2.973,2.814,2.814,0,0,0-2.392-1.219,2.918,2.918,0,0,0-1.846.673,3.173,3.173,0,0,0-1.08,1.765,3.758,3.758,0,0,0-.128.836v2.067a3.324,3.324,0,0,0,.824,2.276,2.744,2.744,0,0,0,2.148.929,2.821,2.821,0,0,0,2.415-1.2A5.167,5.167,0,0,0,275.515,48.286Z" transform="translate(-235.455 -37.128)"/><path class="app-store-a" d="M425.125,13.387a4.592,4.592,0,0,1-1.521,3.565,6.751,6.751,0,0,1-4.668,1.5,8.168,8.168,0,0,1-4.436-1.068l.639-2.287a7.712,7.712,0,0,0,3.971,1.068,3.74,3.74,0,0,0,2.415-.7A2.276,2.276,0,0,0,422.4,13.6a2.418,2.418,0,0,0-.708-1.753,6.629,6.629,0,0,0-2.369-1.324c-3.031-1.126-4.528-2.764-4.528-4.912a4.356,4.356,0,0,1,1.591-3.46A6.31,6.31,0,0,1,420.6.8a8.286,8.286,0,0,1,3.89.813l-.7,2.229a6.854,6.854,0,0,0-3.3-.79,3.421,3.421,0,0,0-2.276.708,2.061,2.061,0,0,0-.685,1.556,2.085,2.085,0,0,0,.789,1.672,8.86,8.86,0,0,0,2.5,1.324,8.37,8.37,0,0,1,3.251,2.09,4.345,4.345,0,0,1,1.057,2.984" transform="translate(-366.359 -0.8)"/><path class="app-store-a" d="M527.124,22.744h-3.031v6c0,1.521.534,2.287,1.6,2.287a5.1,5.1,0,0,0,1.219-.128L527,33a6.373,6.373,0,0,1-2.137.3,3.288,3.288,0,0,1-2.543-1,4.847,4.847,0,0,1-.917-3.333V22.732h-1.8V20.677h1.8V18.413l2.694-.813v3.077h3.031v2.067" transform="translate(-459.255 -15.649)"/><path class="app-store-a" d="M609.611,48.328a6.792,6.792,0,0,1-1.626,4.679,5.819,5.819,0,0,1-4.528,1.881,5.573,5.573,0,0,1-4.343-1.8,6.537,6.537,0,0,1-1.614-4.552,6.745,6.745,0,0,1,1.66-4.7A5.8,5.8,0,0,1,603.654,42a5.651,5.651,0,0,1,4.377,1.811A6.454,6.454,0,0,1,609.611,48.328Zm-2.845.058a5.541,5.541,0,0,0-.732-2.914,2.85,2.85,0,0,0-4.993,0,6.287,6.287,0,0,0,0,5.887,2.82,2.82,0,0,0,4.97-.023A5.627,5.627,0,0,0,606.766,48.386Z" transform="translate(-528.11 -37.216)"/><path class="app-store-a" d="M728.33,44.571a5.089,5.089,0,0,0-.871-.07,2.593,2.593,0,0,0-2.241,1.091,4.143,4.143,0,0,0-.685,2.438v6.491h-2.752V46.045c0-1.428-.023-2.729-.081-3.89h2.392l.1,2.369h.081a4.218,4.218,0,0,1,1.37-1.962,3.343,3.343,0,0,1,1.986-.662,5.784,5.784,0,0,1,.685.046l.011,2.624" transform="translate(-637.888 -37.128)"/><path class="app-store-a" d="M800.9,47.487a6.288,6.288,0,0,1-.1,1.242h-8.244a3.585,3.585,0,0,0,1.2,2.8,4.117,4.117,0,0,0,2.694.859,9.25,9.25,0,0,0,3.332-.581l.43,1.9a10.318,10.318,0,0,1-4.145.766,6.006,6.006,0,0,1-4.517-1.7,6.259,6.259,0,0,1-1.637-4.54,7.1,7.1,0,0,1,1.533-4.656,5.261,5.261,0,0,1,4.32-1.986,4.589,4.589,0,0,1,4.041,1.986A6.717,6.717,0,0,1,800.9,47.487Zm-2.624-.708a3.7,3.7,0,0,0-.534-2.113,2.4,2.4,0,0,0-2.183-1.15,2.61,2.61,0,0,0-2.183,1.115,4.129,4.129,0,0,0-.813,2.137Z" transform="translate(-698.169 -36.863)"/></g><g transform="translate(54.423 10.648)"><path class="app-store-a" d="M6.818,12.93H5.378l-.79-2.473H1.848L1.093,12.93H-.3L2.405,4.5H4.078ZM4.345,9.412,3.636,7.205c-.07-.221-.209-.755-.43-1.591H3.183c-.093.36-.209.882-.406,1.591l-.7,2.206Z" transform="translate(0.3 -4.059)"/><path class="app-store-a" d="M74.941,24.7l-2.3,6.084H71.329L69.1,24.7h1.451l1.033,3.216c.174.534.325,1.045.441,1.533h.035c.1-.441.255-.952.441-1.533L73.524,24.7h1.417" transform="translate(-61.042 -21.913)"/><path class="app-store-a" d="M132.874,29.989l-.1-.7h-.035a2.09,2.09,0,0,1-1.777.836A1.764,1.764,0,0,1,129.1,28.34c0-1.5,1.3-2.276,3.553-2.276v-.116c0-.8-.43-1.2-1.266-1.2a2.836,2.836,0,0,0-1.591.453l-.279-.882a3.9,3.9,0,0,1,2.09-.523c1.591,0,2.392.836,2.392,2.52v2.241a8.093,8.093,0,0,0,.093,1.451Zm-.186-3.031c-1.5,0-2.253.36-2.253,1.231a.861.861,0,0,0,.929.952,1.292,1.292,0,0,0,1.324-1.242Z" transform="translate(-114.075 -21.118)"/><path class="app-store-a" d="M191.1,3.814a.807.807,0,1,1,.023-1.614.787.787,0,0,1,.824.8A.79.79,0,0,1,191.1,3.814Zm-.65,1H191.8v6.073h-1.347Z" transform="translate(-168.169 -2.026)"/><path class="app-store-a" d="M223.9.7h1.347V9.56H223.9Z" transform="translate(-197.867 -0.7)"/><path class="app-store-a" d="M256.174,29.9l-.1-.7h-.035a2.09,2.09,0,0,1-1.777.836,1.764,1.764,0,0,1-1.858-1.788c0-1.5,1.3-2.276,3.553-2.276V25.86c0-.8-.43-1.2-1.266-1.2a2.836,2.836,0,0,0-1.591.453l-.279-.894a3.9,3.9,0,0,1,2.09-.523c1.591,0,2.392.836,2.392,2.52v2.241a9.6,9.6,0,0,0,.081,1.451h-1.208Zm-.186-3.031c-1.5,0-2.253.36-2.253,1.231a.861.861,0,0,0,.929.952,1.292,1.292,0,0,0,1.324-1.242Z" transform="translate(-223.058 -21.029)"/><path class="app-store-a" d="M317.67,9.711a2.069,2.069,0,0,1-1.916-1.08h-.023l-.081.941H314.5c.035-.488.046-1.033.046-1.637V.7H315.9V4.381h.023a2.089,2.089,0,0,1,1.939-1.01c1.463,0,2.485,1.254,2.485,3.077C320.352,8.329,319.214,9.711,317.67,9.711Zm-.279-5.283A1.551,1.551,0,0,0,315.9,6.041V7.11a1.485,1.485,0,0,0,1.463,1.521c1.01,0,1.614-.824,1.614-2.137,0-1.231-.627-2.067-1.591-2.067Z" transform="translate(-277.947 -0.7)"/><path class="app-store-a" d="M382.1.7h1.347V9.56H382.1Z" transform="translate(-337.698 -0.7)"/><path class="app-store-a" d="M416.253,27.007H412.2a1.744,1.744,0,0,0,1.916,1.8,4.567,4.567,0,0,0,1.637-.29l.209.941a4.925,4.925,0,0,1-2.032.372,2.821,2.821,0,0,1-3.031-3.065,2.969,2.969,0,0,1,2.88-3.263c1.544,0,2.531,1.15,2.531,2.891A2.354,2.354,0,0,1,416.253,27.007Zm-1.231-.964c0-.941-.476-1.6-1.335-1.6a1.6,1.6,0,0,0-1.475,1.6Z" transform="translate(-363.154 -20.853)"/><path class="app-store-a" d="M505.226,30.04a2.89,2.89,0,0,1-2.926-3.123,2.959,2.959,0,0,1,3.031-3.216,2.868,2.868,0,0,1,2.926,3.112A2.981,2.981,0,0,1,505.226,30.04Zm.058-5.353c-.975,0-1.6.917-1.6,2.183s.639,2.16,1.591,2.16,1.591-.975,1.591-2.195S506.236,24.687,505.284,24.687Z" transform="translate(-443.941 -21.029)"/><path class="app-store-a" d="M575.618,29.812h-1.347v-3.5c0-1.08-.418-1.614-1.231-1.614a1.4,1.4,0,0,0-1.347,1.486V29.8h-1.347V25.469c0-.534-.012-1.115-.046-1.742h1.184l.058.941h.035A2.186,2.186,0,0,1,573.5,23.6c1.277,0,2.113.975,2.113,2.566v3.646" transform="translate(-504.045 -20.941)"/><path class="app-store-a" d="M664.181,14.231h-1.486v2.949c0,.755.267,1.126.79,1.126a2.955,2.955,0,0,0,.6-.058l.035,1.022a2.926,2.926,0,0,1-1.045.151c-1.068,0-1.7-.592-1.7-2.125V14.231H660.5v-1.01h.883V12.106l1.324-.406v1.509h1.486v1.022" transform="translate(-583.771 -10.423)"/><path class="app-store-a" d="M713.672,9.571h-1.347V6.1c0-1.091-.418-1.637-1.231-1.637a1.323,1.323,0,0,0-1.347,1.44V9.56H708.4V.7h1.347V4.346h.023a2.042,2.042,0,0,1,1.823-.987c1.289,0,2.078,1,2.078,2.589V9.571" transform="translate(-626.11 -0.7)"/><path class="app-store-a" d="M772.453,27.007H768.4a1.744,1.744,0,0,0,1.916,1.8,4.568,4.568,0,0,0,1.637-.29l.209.941a4.925,4.925,0,0,1-2.032.372,2.821,2.821,0,0,1-3.031-3.065,2.969,2.969,0,0,1,2.88-3.263c1.544,0,2.531,1.15,2.531,2.891A2.357,2.357,0,0,1,772.453,27.007Zm-1.231-.964c0-.941-.476-1.6-1.335-1.6a1.593,1.593,0,0,0-1.475,1.6Z" transform="translate(-677.994 -20.853)"/></g></svg>