<svg xmlns="http://www.w3.org/2000/svg" xmlns:xlink="http://www.w3.org/1999/xlink" width="160" height="35" viewBox="0 0 196.387 43.315"><defs><style>.a{fill:url(#a);}.b{fill:#d2d2d2;}.c{fill:#fff;}.d{fill:#56e6f0;font-size:12px;font-family:Poppins-SemiBold, Poppins;font-weight:600;}</style><linearGradient id="a" x1="0.5" x2="0.5" y2="1" gradientUnits="objectBoundingBox"><stop offset="0" stop-color="#57f0d8"/><stop offset="1" stop-color="#37c4ce"/></linearGradient></defs><path class="a" d="M376.71,389.036c0-1.444-.009-2.888,0-4.333a2.13,2.13,0,0,1,2.2-2.386c3.073-.06,6.147-.006,9.22-.037.636-.006.608.334.606.767-.009,1.629.064,3.262-.029,4.886-.054.945.369.976,1.094.976.76,0,1.226-.03,1.162-1.032-.1-1.586,0-3.184-.039-4.775-.014-.608.13-.832.788-.824,2.925.036,5.851,0,8.776.024a2.233,2.233,0,0,1,2.467,2.494c.014,2.888-.02,5.776.021,8.664.011.688-.166.879-.855.855-1.554-.055-3.113.041-4.664-.04-.907-.047-1.126.259-1.1,1.114.026.764.044,1.222,1.044,1.158,1.586-.1,3.184,0,4.775-.042.647-.019.8.2.792.815-.029,2.961,0,5.925-.02,8.886a2.138,2.138,0,0,1-2.37,2.314c-2.925.011-5.851-.028-8.776.024-.775.013-.9-.261-.884-.94.044-1.591-.056-3.188.04-4.775.061-1.02-.552-.831-1.113-.82-.528.011-1.191-.271-1.139.773.083,1.662,0,3.331.034,5,.01.551-.106.766-.72.759-3.035-.033-6.072,0-9.108-.021a2.04,2.04,0,0,1-2.19-2.129c-.034-3.073,0-6.146-.027-9.219-.005-.57.229-.664.724-.657,1.629.024,3.263-.062,4.886.036.973.059.976-.414.946-1.107-.028-.629.127-1.231-.91-1.167-1.549.094-3.111-.017-4.664.042-.748.028-1.033-.132-.992-.946C376.762,391.926,376.71,390.479,376.71,389.036Z" transform="translate(-208.444 -382.227)"/><path class="b" d="M364.337,386.781a1.5,1.5,0,0,1-.439.906,14.035,14.035,0,0,1,.239-2.489C364.346,385.708,363.956,386.293,364.337,386.781Z" transform="translate(-209.26 -370.801)"/><path class="c" d="M395.241,387.872c-.873,1.853-1.719,3.722-2.635,5.554-.325.648-.241.952.433,1.239.943.4,1.839.913,2.858,1.43l-9.608,8.046c-.29-.567.051-.845.183-1.137.658-1.443,1.3-2.9,2.049-4.294.434-.806.229-1.14-.549-1.459-.88-.36-1.708-.847-2.687-1.343l9.73-8.185Z" transform="translate(-209.396 -382.83)"/><path class="c" d="M238.3,374.768c-1.743,7.529-3.448,14.9-5.15,22.264-.475,2.058-.946,4.117-1.4,6.179a6.747,6.747,0,0,0-.122,1.26c-.02.693-.108,1.472.805,1.682a1.855,1.855,0,0,0,2.117-.807,8.2,8.2,0,0,0,1.014-2.68q3.121-13.464,6.223-26.933c.164-.719.4-1.008,1.183-.986,2.113.061,4.229.021,6.457.021-.78,3.392-1.539,6.708-2.306,10.021q-2.184,9.425-4.382,18.846a16.7,16.7,0,0,1-1.133,3.133c-2.8,6.131-8.533,7.213-13.474,6.054-2.531-.594-3.945-2.606-4.133-5.334-.191-2.784.6-5.411,1.205-8.064,1.8-7.9,3.663-15.783,5.454-23.683.169-.746.4-1.012,1.177-.993C233.947,374.8,236.062,374.768,238.3,374.768Z" transform="translate(-200.721 -374.706)"/><path class="c" d="M258.273,389.544c2.2,0,4.273.029,6.347-.016.725-.016.819.2.655.854-.467,1.862-.9,3.733-1.285,5.613-.119.581-.355.743-.917.735-1.886-.03-3.773.02-5.657-.029a.825.825,0,0,0-.989.777q-.8,3.6-1.68,7.178c-.16.658,0,.847.7.835,2.344-.042,4.69-.017,7.122-.017-.534,2.325-1.059,4.56-1.552,6.8-.085.385-.164.609-.63.607-5.039-.014-10.078-.008-15.234-.008.615-2.7,1.2-5.318,1.8-7.93,2.212-9.616,4.449-19.227,6.618-28.854.24-1.067.625-1.376,1.719-1.357,4.31.075,8.622.055,12.933.011.851-.009.938.251.753.979-.462,1.824-.925,3.651-1.261,5.5-.15.82-.509.947-1.229.931-1.924-.042-3.848,0-5.773-.023-.485,0-.773.083-.891.629C259.341,384.975,258.818,387.178,258.273,389.544Z" transform="translate(-202.321 -374.705)"/><path class="c" d="M363.655,386.3c1.4-3.528,2.826-7.048,4.194-10.589a1.241,1.241,0,0,1,1.409-.966c2.112.07,4.229.024,6.354.024.094.5-.219.831-.389,1.2-3.473,7.439-6.905,14.9-10.469,22.293-1.327,2.754-1.675,5.73-2.441,8.611-.463,1.742-.811,3.516-1.2,5.278-.1.433-.19.76-.787.749-2.153-.04-4.306-.016-6.57-.016.806-3.539,1.57-7.007,2.4-10.462a16.308,16.308,0,0,0,.464-3.987c-.069-7.544-.086-15.089-.153-22.634-.006-.753.1-1.082.969-1.049,1.884.071,3.773.058,5.657,0,.736-.022.9.2.85.9-.2,2.916-.35,5.836-.518,8.755a5.284,5.284,0,0,0-.053,1.867C363.4,386.7,363.55,386.369,363.655,386.3Z" transform="translate(-210.528 -374.705)"/><path class="c" d="M319.829,406.406c2.387,0,4.691.013,6.993-.009.609-.007.906.023.688.8-.455,1.625-.816,3.279-1.156,4.933-.125.609-.376.767-.985.764q-6.928-.043-13.855,0c-.686,0-.812-.131-.648-.835q3.838-16.49,7.614-32.995c.267-1.159.58-2.31.8-3.48.11-.6.313-.84.96-.829,2.229.04,4.459.016,6.859.016C324.669,385.335,322.26,395.821,319.829,406.406Z" transform="translate(-207.283 -374.706)"/><path class="c" d="M329.749,412.878c2.88-12.532,5.726-24.913,8.581-37.294.086-.372.061-.838.715-.828,2.343.032,4.686.013,7.106.013-1.362,5.921-2.7,11.755-4.043,17.587-1.009,4.377-2,8.758-3.047,13.126-.193.811.033.959.795.94,2-.047,4,.007,6-.03.655-.012.889.115.707.821-.422,1.635-.776,3.288-1.164,4.932-.1.4-.162.755-.777.751C339.7,412.865,334.777,412.878,329.749,412.878Z" transform="translate(-208.715 -374.707)"/><path class="c" d="M303.011,412.877H301.28c-1.919,0-1.919,0-1.5-1.816q4.049-17.562,8.079-35.127c.205-.9.513-1.251,1.494-1.194,1.765.1,3.539.047,5.309.018.627-.01.873.055.7.812q-4.256,18.282-8.438,36.581c-.13.569-.336.763-.907.74C305.014,412.848,304.013,412.877,303.011,412.877Z" transform="translate(-206.433 -374.705)"/><g transform="translate(71.579 0.044)"><path class="c" d="M301.932,380.073a4.985,4.985,0,0,0-4.516-5.116,48.358,48.358,0,0,0-6.094-.189c-2.1,0-3.829.033-5.56-.018-.676-.019-.9.193-1.045.855-.585,2.742-1.25,5.466-1.881,8.2q-3.256,14.09-6.517,28.178c-.156.673-.1.929.709.916,3.272-.052,6.547.016,9.819-.041a9.179,9.179,0,0,0,8.2-4.715,16.962,16.962,0,0,0,2.009-4.757c1.184-4.969,2.349-9.942,3.452-14.93C301.119,385.689,302.061,382.971,301.932,380.073Zm-7.92,3.125c-.442,2.18-.934,4.351-1.431,6.52-1.038,4.524-2.1,9.043-3.138,13.568-.579,2.525-1.38,3.1-4.055,2.766q1.036-4.493,2.067-8.966,1.674-7.233,3.352-14.464c.3-1.287.462-1.374,2.021-1.151A1.28,1.28,0,0,1,294.013,383.2Z" transform="translate(-276.25 -374.75)"/></g><path class="c" d="M219.5,374.915c-3.825-.415-7.686-.079-11.53-.154-.564-.011-.565.387-.651.761q-4.21,18.287-8.447,36.568c-.183.787.1.8.7.8,1.693-.025,3.385-.009,5.078-.009v-.014c1.655,0,3.31.053,4.962-.011a9.052,9.052,0,0,0,7.268-3.622,15.3,15.3,0,0,0,2.669-5.572q1.707-6.929,3.241-13.9a59.231,59.231,0,0,0,1.718-8.572C224.773,377.494,223.152,375.31,219.5,374.915Zm-2.918,8.149c-.3,2.289-.954,4.5-1.452,6.748-1.031,4.645-2.127,9.276-3.2,13.912-.416,1.8-1.171,2.413-3.061,2.427-.719.14-.946-.055-.728-.972,1.783-7.543,3.545-15.092,5.212-22.661.313-1.424,1.181-1.083,2.028-1.036C216.363,381.534,216.7,382.149,216.585,383.064Z" transform="translate(-198.82 -374.703)"/><text class="d" transform="translate(166.387 39.315)"><tspan x="0" y="0">BETA</tspan></text></svg>