<svg xmlns="http://www.w3.org/2000/svg" xmlns:xlink="http://www.w3.org/1999/xlink" width="195.944" height="58.057" viewBox="0 0 195.944 58.057"><defs><style>.play-store-a{fill:#a6a6a6;}.play-store-b,.play-store-c,.play-store-j{fill:#fff;}.play-store-b{stroke:#fff;stroke-miterlimit:10;stroke-width:0.2px;}.play-store-d{fill:url(#play-store-a);}.play-store-e{fill:url(#play-store-b);}.play-store-f{fill:url(#play-store-c);}.play-store-g{fill:url(#play-store-d);}.play-store-h{opacity:0.2;}.play-store-i{opacity:0.12;}.play-store-j{opacity:0.25;}</style><linearGradient id="play-store-a" x1="0.908" y1="1.032" x2="-0.383" y2="0.36" gradientUnits="objectBoundingBox"><stop offset="0" stop-color="#00a0ff"/><stop offset="0.007" stop-color="#00a1ff"/><stop offset="0.26" stop-color="#00beff"/><stop offset="0.512" stop-color="#00d2ff"/><stop offset="0.76" stop-color="#00dfff"/><stop offset="1" stop-color="#00e3ff"/></linearGradient><linearGradient id="play-store-b" x1="1.077" y1="0.729" x2="-1.307" y2="0.729" gradientUnits="objectBoundingBox"><stop offset="0" stop-color="#ffe000"/><stop offset="0.409" stop-color="#ffbd00"/><stop offset="0.775" stop-color="orange"/><stop offset="1" stop-color="#ff9c00"/></linearGradient><linearGradient id="play-store-c" x1="0.864" y1="-0.023" x2="-0.499" y2="-1.789" gradientUnits="objectBoundingBox"><stop offset="0" stop-color="#ff3a44"/><stop offset="1" stop-color="#c31162"/></linearGradient><linearGradient id="play-store-d" x1="-0.186" y1="2.701" x2="0.423" y2="1.909" gradientUnits="objectBoundingBox"><stop offset="0" stop-color="#32a071"/><stop offset="0.069" stop-color="#2da771"/><stop offset="0.476" stop-color="#15cf74"/><stop offset="0.801" stop-color="#06e775"/><stop offset="1" stop-color="#00f076"/></linearGradient></defs><path d="M188.686,58.057H7.257A7.187,7.187,0,0,1,0,50.8V7.257A7.187,7.187,0,0,1,7.257,0H188.686a7.187,7.187,0,0,1,7.257,7.257V50.8A7.187,7.187,0,0,1,188.686,58.057Z"/><path class="play-store-a" d="M188.686,1.161a6.133,6.133,0,0,1,6.1,6.1V50.8a6.133,6.133,0,0,1-6.1,6.1H7.257a6.133,6.133,0,0,1-6.1-6.1V7.257a6.133,6.133,0,0,1,6.1-6.1H188.686m0-1.161H7.257A7.278,7.278,0,0,0,0,7.257V50.8a7.187,7.187,0,0,0,7.257,7.257H188.686a7.187,7.187,0,0,0,7.257-7.257V7.257A7.278,7.278,0,0,0,188.686,0Z"/><path class="play-store-b" d="M50.109,11.69a3.953,3.953,0,0,1-1.016,2.9A4.5,4.5,0,0,1,41.4,11.4a4.268,4.268,0,0,1,1.306-3.193A4.268,4.268,0,0,1,45.9,6.9a3.865,3.865,0,0,1,1.742.435,3.161,3.161,0,0,1,1.306,1.016l-.726.726A2.707,2.707,0,0,0,45.9,8.061a2.888,2.888,0,0,0-2.322,1.016,2.99,2.99,0,0,0-1.016,2.467,2.99,2.99,0,0,0,1.016,2.467A3.737,3.737,0,0,0,45.9,15.028a3.183,3.183,0,0,0,2.467-1.016,2.4,2.4,0,0,0,.726-1.742H45.9V11.109h4.209v.581Zm6.677-3.629H52.866v2.758h3.629v1.016H52.866v2.758h3.919v1.161h-5.08V7.045h5.08Zm4.79,7.693H60.414V8.061H57.946V7.045h6.1V8.061H61.575Zm6.677,0V7.045h1.161v8.709Zm6.1,0H73.186V8.061H70.719V7.045H76.67V8.061H74.2v7.693Zm13.789-1.161A4.5,4.5,0,0,1,80.444,11.4,4.268,4.268,0,0,1,81.75,8.206a4.556,4.556,0,0,1,6.386,0A4.268,4.268,0,0,1,89.442,11.4,4.268,4.268,0,0,1,88.136,14.593Zm-5.515-.726a3.425,3.425,0,0,0,2.322,1.016,2.888,2.888,0,0,0,2.322-1.016A3.5,3.5,0,0,0,88.281,11.4a2.99,2.99,0,0,0-1.016-2.467,3.425,3.425,0,0,0-2.322-1.016,2.888,2.888,0,0,0-2.322,1.016A3.5,3.5,0,0,0,81.6,11.4,2.99,2.99,0,0,0,82.621,13.867Zm8.418,1.887V7.045h1.306l4.209,6.822V7.045h1.161v8.709H96.555l-4.5-7.112v7.112H91.039Z" transform="translate(18.689 3.115)"/><path class="play-store-c" d="M80.289,23.922a6.106,6.106,0,0,0-6.241,6.241A6.2,6.2,0,0,0,80.289,36.4a6.106,6.106,0,0,0,6.241-6.241A6.022,6.022,0,0,0,80.289,23.922Zm0,9.87a3.6,3.6,0,0,1-3.483-3.774,3.6,3.6,0,0,1,3.483-3.774,3.516,3.516,0,0,1,3.483,3.774A3.6,3.6,0,0,1,80.289,33.791Zm-13.5-9.87a6.106,6.106,0,0,0-6.241,6.241A6.2,6.2,0,0,0,66.79,36.4a6.106,6.106,0,0,0,6.241-6.241A6.022,6.022,0,0,0,66.79,23.922Zm0,9.87a3.6,3.6,0,0,1-3.483-3.774,3.6,3.6,0,0,1,3.483-3.774,3.516,3.516,0,0,1,3.483,3.774A3.6,3.6,0,0,1,66.79,33.791ZM50.679,25.809v2.613h6.241a5.488,5.488,0,0,1-1.451,3.338,6.424,6.424,0,0,1-4.79,1.887,6.758,6.758,0,0,1-6.822-6.967,6.847,6.847,0,0,1,6.822-6.967,7.2,7.2,0,0,1,4.79,1.887l1.887-1.887A9.3,9.3,0,0,0,50.825,17.1,9.791,9.791,0,0,0,41.1,26.679a9.791,9.791,0,0,0,9.725,9.579A8.353,8.353,0,0,0,57.5,33.5a8.738,8.738,0,0,0,2.322-6.1,5.442,5.442,0,0,0-.145-1.6h-9Zm65.9,2.032a5.639,5.639,0,0,0-5.225-3.919c-3.193,0-5.806,2.467-5.806,6.241a6.074,6.074,0,0,0,6.1,6.241,5.954,5.954,0,0,0,5.08-2.758l-2.032-1.451a3.538,3.538,0,0,1-3.048,1.742,3.149,3.149,0,0,1-3.048-1.887l8.273-3.483-.29-.726Zm-8.418,2.032a3.526,3.526,0,0,1,3.193-3.629,2.567,2.567,0,0,1,2.322,1.306l-5.515,2.322Zm-6.822,5.951h2.758V17.681h-2.758Zm-4.354-10.6a4.779,4.779,0,0,0-3.338-1.451,6.237,6.237,0,0,0-5.951,6.241,6.01,6.01,0,0,0,5.951,6.1,4.167,4.167,0,0,0,3.193-1.451h.145v.871c0,2.322-1.306,3.629-3.338,3.629a3.225,3.225,0,0,1-3.048-2.177L88.272,38a5.988,5.988,0,0,0,5.515,3.629c3.193,0,5.806-1.887,5.806-6.386V24.212H96.98v1.016Zm-3.193,8.563A3.6,3.6,0,0,1,90.3,30.018a3.6,3.6,0,0,1,3.483-3.774,3.492,3.492,0,0,1,3.338,3.774A3.492,3.492,0,0,1,93.787,33.791ZM129.2,17.681h-6.531V35.824h2.758V29H129.2a5.668,5.668,0,1,0,0-11.321Zm.145,8.709h-3.919V20.148h3.919A3.188,3.188,0,0,1,132.54,23.2a3.322,3.322,0,0,1-3.193,3.193Zm16.691-2.613c-2.032,0-4.064.871-4.79,2.758l2.467,1.016a2.564,2.564,0,0,1,2.467-1.306,2.728,2.728,0,0,1,2.9,2.322v.145a5.757,5.757,0,0,0-2.758-.726c-2.613,0-5.225,1.451-5.225,4.064a4.252,4.252,0,0,0,4.5,4.064,4.084,4.084,0,0,0,3.483-1.742h.145v1.451h2.613V28.857a5.493,5.493,0,0,0-5.806-5.08Zm-.29,10.015c-.871,0-2.177-.435-2.177-1.6,0-1.451,1.6-1.887,2.9-1.887a5.613,5.613,0,0,1,2.467.581A3.38,3.38,0,0,1,145.748,33.791Zm15.24-9.579L157.94,32.05H157.8L154.6,24.212h-2.9l4.79,11.031-2.758,6.1h2.758l7.4-17.127h-2.9ZM136.6,35.824h2.758V17.681H136.6Z" transform="translate(18.554 7.72)"/><g transform="translate(14.514 10.374)"><path class="play-store-d" d="M10.581,7.5A2.838,2.838,0,0,0,10,9.532V41.609a2.871,2.871,0,0,0,.726,2.032l.145.145,18-18V25.5Z" transform="translate(-10 -6.988)"/><path class="play-store-e" d="M28.851,28.137,22.9,22.186v-.435L28.851,15.8l.145.145,7.112,4.064c2.032,1.161,2.032,3.048,0,4.209Z" transform="translate(-4.177 -3.241)"/><path class="play-store-f" d="M34.639,26.1l-6.1-6.1L10.4,38.143c.726.726,1.742.726,3.048.145L34.639,26.1" transform="translate(-9.819 -1.345)"/><path class="play-store-g" d="M34.639,19.7,13.448,7.648c-1.306-.726-2.322-.581-3.048.145l18.143,18,6.1-6.1Z" transform="translate(-9.819 -7.136)"/><path class="play-store-h" d="M34.494,24.1,13.448,36a2.374,2.374,0,0,1-2.9,0l-.145.145.145.145a2.374,2.374,0,0,0,2.9,0Z" transform="translate(-9.819 0.506)"/><path class="play-store-i" d="M10.581,37.853A2.838,2.838,0,0,1,10,35.821v.145A2.871,2.871,0,0,0,10.726,38v-.145h-.145ZM41.932,21.887l-7.257,4.064.145.145,7.112-4.064A2.413,2.413,0,0,0,43.383,20C43.383,20.726,42.8,21.306,41.932,21.887Z" transform="translate(-10 -1.345)"/><path class="play-store-j" d="M13.629,7.8l28.3,16.111c.871.581,1.451,1.161,1.451,1.887a2.413,2.413,0,0,0-1.451-2.032L13.629,7.659C11.6,6.5,10,7.369,10,9.691v.145C10,7.659,11.6,6.643,13.629,7.8Z" transform="translate(-10 -7.147)"/></g></svg>