<svg xmlns="http://www.w3.org/2000/svg" xmlns:xlink="http://www.w3.org/1999/xlink" version="1.1" x="0px" y="0px" viewBox="0 0 48 60" enable-background="new 0 0 48 48" xml:space="preserve"><g><g><rect x="5" y="42" width="38" height="2"/><polygon points="37,40 38,40 39,40 41,40 42,40 43,40 43,17 37,17   "/><polygon points="29,40 30,40 31,40 33,40 34,40 35,40 35,21 29,21   "/><polygon points="21,40 22,40 23,40 25,40 26,40 27,40 27,25 21,25   "/><polygon points="14,40 15,40 17,40 18,40 19,40 19,29 13,29 13,40   "/><polygon points="7,40 9,40 10,40 11,40 11,33 5,33 5,40 6,40   "/><polygon points="24.397,14 24.649,14 29.649,18 31.414,18 41,8.414 41,13 43,13 43,6.086 41.914,5 35,5 35,7 39.586,7 30.586,16     30.351,16 25.351,12 23.603,12 5.603,29 5,29 5,31 6.397,31   "/></g></g><text x="0" y="63" fill="#000000" font-size="5px" font-weight="bold" font-family="'Helvetica Neue', Helvetica, Arial-Unicode, Arial, Sans-serif">Created by Clea Doltz</text><text x="0" y="68" fill="#000000" font-size="5px" font-weight="bold" font-family="'Helvetica Neue', Helvetica, Arial-Unicode, Arial, Sans-serif">from the Noun Project</text></svg>