<svg xmlns="http://www.w3.org/2000/svg" width="298.396" height="52.936" viewBox="0 0 298.396 52.936"><defs><style>.a{opacity:0.071;}.b{fill:#fff;}</style></defs><g class="a" transform="translate(-699.595 -3951)"><path class="b" d="M12.885,55.341l20.2-20.248-20.2-20.248,6.22-6.22L45.573,35.093,19.1,61.561Z" transform="translate(686.71 3942.375)"/><path class="b" d="M12.885,55.341l20.2-20.248-20.2-20.248,6.22-6.22L45.573,35.093,19.1,61.561Z" transform="translate(730.995 3942.375)"/><path class="b" d="M12.885,55.341l20.2-20.248-20.2-20.248,6.22-6.22L45.573,35.093,19.1,61.561Z" transform="translate(775.279 3942.375)"/><path class="b" d="M12.885,55.341l20.2-20.248-20.2-20.248,6.22-6.22L45.573,35.093,19.1,61.561Z" transform="translate(819.564 3942.375)"/><path class="b" d="M12.885,55.341l20.2-20.248-20.2-20.248,6.22-6.22L45.573,35.093,19.1,61.561Z" transform="translate(863.849 3942.375)"/><path class="b" d="M12.885,55.341l20.2-20.248-20.2-20.248,6.22-6.22L45.573,35.093,19.1,61.561Z" transform="translate(908.133 3942.375)"/><path class="b" d="M12.885,55.341l20.2-20.248-20.2-20.248,6.22-6.22L45.573,35.093,19.1,61.561Z" transform="translate(952.418 3942.375)"/></g></svg>