<svg xmlns="http://www.w3.org/2000/svg" width="811" height="324" viewBox="0 0 811 324"><defs><style>.a,.h{fill:none;}.a{stroke:#fff;}.b,.c,.d{fill:#fff;}.b{font-size:14px;}.b,.d{font-family:Poppins-Medium, Poppins;font-weight:500;}.b,.c,.d,.f{letter-spacing:-0.02em;}.c,.f{font-size:24px;font-family:Poppins-Bold, Poppins;font-weight:700;}.d{font-size:18px;}.e,.f{fill:#30bacc;}.e{text-decoration:underline;}.g{stroke:none;}</style></defs><g transform="translate(-960 -687)"><g class="a" transform="translate(960 687)"><rect class="g" width="811" height="324"/><rect class="h" x="0.5" y="0.5" width="810" height="323"/></g><text class="b" transform="translate(979 707)"><tspan x="0" y="15">Market Value as of the date of the CardFacs was generated with a statement that this estimate will be valued </tspan><tspan x="0" y="36">for 3 days of date it was generated.</tspan></text><text class="c" transform="translate(1152 805)"><tspan x="0" y="0">PLACE IN THE TOP 5 GRADING PRICES:</tspan></text><text class="d" transform="translate(979 993)"><tspan x="0" y="0">Learn more about how it works at </tspan><tspan class="e" y="0">duedilly.co</tspan></text><text class="d" transform="translate(1004 866)"><tspan x="0" y="0">GRD - 10</tspan></text><text class="d" transform="translate(1179 866)"><tspan x="0" y="0">GRD - 9</tspan></text><text class="d" transform="translate(1341 866)"><tspan x="0" y="0">GRD - 8</tspan></text><text class="d" transform="translate(1501 866)"><tspan x="0" y="0">GRD - 7</tspan></text><text class="d" transform="translate(1660 866)"><tspan x="0" y="0">GRD - 6</tspan></text><text class="f" transform="translate(1004 914)"><tspan x="0" y="0">$6082</tspan></text><text class="f" transform="translate(1179 914)"><tspan x="0" y="0">$1298</tspan></text><text class="f" transform="translate(1344 914)"><tspan x="0" y="0">$400</tspan></text><text class="f" transform="translate(1508 914)"><tspan x="0" y="0">$167</tspan></text><text class="f" transform="translate(1671 914)"><tspan x="0" y="0">$60</tspan></text></g></svg>