<svg xmlns="http://www.w3.org/2000/svg" xmlns:xlink="http://www.w3.org/1999/xlink" width="929.312" height="697.642" viewBox="0 0 929.312 697.642"><defs><style>.mobile-app-a{fill:url(#mobile-app-a);}</style><linearGradient id="mobile-app-a" x1="0.5" x2="0.5" y2="1" gradientUnits="objectBoundingBox"><stop offset="0" stop-color="#57f0d8"/><stop offset="1" stop-color="#37c4ce"/></linearGradient></defs><g transform="translate(-200 -5085.439)"><g transform="translate(200 5085.439)"><path class="mobile-app-a" d="M183.173,873.576q18.618-18.75,37.242-37.495,51.143-51.155,102.412-102.187c3.034-3.01,3.852-5.366,2.123-9.47-5.544-13.177-9.253-26.965-12.227-41.126-61.694,61.795-123.178,123.379-185.364,185.669-6.48-11.249-11.31-21.462-16.113-31.69a2.873,2.873,0,0,1,.685-3.669c1.135-1.05,2.181-2.2,3.277-3.291q94.539-94.448,189.111-188.864c2.418-2.414,4.058-4.745,4.008-8.446a222.8,222.8,0,0,1,7.113-57.445,19.635,19.635,0,0,0,.233-2.789C241.927,646.616,168.544,720.1,94.3,794.435c-5.339-14.1-8.8-27.061-12.161-40.041-.657-2.538,1.849-3.657,3.275-5.086q29.127-29.212,58.345-58.337Q257.826,577.022,371.93,463.1c1.972-1.968,3.625-6.171,7.57-2.01.952,1,1.89-.737,2.737-1.384,38.455-29.33,71.839-64.114,105.888-98.2q89.312-89.406,178.705-178.729c3.143-3.151,6.243-4.51,10.647-4.333,7.84.313,15.7.086,24.049.086Q590.567,289.571,480.558,399.648c2.165,1.612,3.494.494,4.825.116a245.68,245.68,0,0,1,75.8-9.245,11.066,11.066,0,0,0,9.083-3.665q93.014-93.1,186.087-186.139c3.346-3.351,5.956-4.562,10.227-1.817a84.66,84.66,0,0,0,12.408,6.313c4.044,1.737,5.386,3.5,1.2,6.564a19.2,19.2,0,0,0-2.068,2.036q-87.758,87.671-175.5,175.364c-1.454,1.456-3.384,2.576-4.207,5.2a249.15,249.15,0,0,1,52.455,16.179c3.1,1.375,4.147-1.361,5.631-2.835q34.4-34.209,68.693-68.53,49.947-49.887,99.82-99.85c2.97-2.984,5-3.8,8.462-.841a136.851,136.851,0,0,0,13.563,9.974c3.406,2.249,3.743,3.825.6,6.87-11.687,11.315-23.089,22.926-34.6,34.423q-64.953,64.872-129.927,129.724c-1.5,1.5-3.267,2.723-5.5,4.564a259.724,259.724,0,0,1,38.258,27.928c3.008,2.681,4.125-.5,5.5-1.867q31.127-30.907,62.116-61.957,50.149-50.1,100.229-100.264c3.07-3.088,4.862-3.723,8.006-.136,4.586,5.231,9.711,10,14.741,14.826,1.775,1.7,2.15,2.99.1,4.641a37.27,37.27,0,0,0-2.892,2.855Q823.289,390.34,742.827,470.519c-3.52,3.5-3.785,5.414-.426,9.179a166.007,166.007,0,0,1,20.5,28.82c2.422,4.285,3.747,3.787,6.839.689q81.882-82.044,163.956-163.9c5.342-5.335,5.384-5.366,9.966.942,4.095,5.637,7.964,11.442,12.175,16.992,1.96,2.584,1.5,4.177-.695,6.311-8.474,8.229-16.774,16.639-25.131,24.987q-72.553,72.478-145.19,144.867c-3.305,3.283-3.763,5.789-2.068,9.962,5.392,13.275,8.757,27.187,11.794,41.812L980.755,404.722c6.052,10.406,10.643,20.4,15.277,30.37.938,2.018.855,3.671-.863,5.2-1.155,1.03-2.2,2.181-3.3,3.275q-94.129,94.036-188.336,188c-3.687,3.673-5.458,7.257-5.52,12.571-.235,20.016-3.731,39.605-9.344,59.722q103.81-103.978,206.413-206.748l1.641,1.048q0,24.835.01,49.666c0,2.767-2.253,3.936-3.829,5.512Q885.864,660.344,778.766,767.3q-21.579,21.558-43.132,43.146c-2.247,2.263-4.121,4.263-6.669.468-1.968-2.932-3.412-1.255-5.37.365-23.153,19.179-44.2,40.573-65.329,61.877a17.8,17.8,0,0,1-1.916,1.482c-9.452,1.03-18.93.245-28.38.414-2.725-1.281-.643-3.163-.432-4.838-7.531,2.179-14.83,4.665-22.533,5.488h-4.649c-1.2-.885-2.6-.586-3.924-.588q-43.736-.021-87.47,0c-1.323,0-2.719-.3-3.922.588h-6.976a268.871,268.871,0,0,1-36.338-11.641c-4.086-1.663-6.761-.7-9.805,2.179-3.667,3.464-6.171,8.775-12.324,8.862-11.177-.016-22.346.034-33.5-.02-3.586-2.556-.574-4.432.908-6.006,5.7-6.052,11.611-11.914,17.617-17.667,2.691-2.578,3.249-4.066-.46-6.392-10.488-6.574-20.812-13.438-29.995-21.814-3.478-3.173-5.5-.62-7.719,1.6q-22.983,22.973-45.963,45.951c-2.341,2.343-4.582,4.832-8.4,4.348-12.157-.016-24.3.036-36.433-.024-2.8-1.43-1.289-3.173-.227-4.731a31.213,31.213,0,0,1,3.966-4.233q31.63-31.624,63.265-63.251c5.121-5.123,5.081-5.358.424-10.846a237.65,237.65,0,0,1-17.8-24.37c-3.341-5.139-3.442-5.135-7.936-.643q-51.58,51.519-103.133,103.069c-2.59,2.589-4.952,5.615-9.287,5.026-12.346,0-24.675.064-37-.074C186.362,875.005,183.976,876.52,183.173,873.576Z" transform="translate(-67.852 -178.059)"/><path class="mobile-app-a" d="M292.686,526.267c1.092-1.544,2.737-1.154,4.235-1.154q43.42-.018,86.837,0c1.5,0,3.143-.384,4.243,1.151Z" transform="translate(144.504 171.375)"/><path class="mobile-app-a" d="M516.206,525.994l.161,1.215H455.923a3.21,3.21,0,0,1,2.2-2.518c17.755-1.014,35.523-.327,53.285-.361A6.217,6.217,0,0,1,516.206,525.994Z" transform="translate(309.061 170.433)"/><path class="mobile-app-a" d="M177.594,525.535l.086,1.2h-46.5l2.438-2.124c2,1.739,4.408.914,6.619.928C152.694,525.605,165.144,525.547,177.594,525.535Z" transform="translate(-18.302 170.91)"/><path class="mobile-app-a" d="M228.734,525.818q-.075.548-.133,1.1H186.755a3.272,3.272,0,0,1,2.219-2.5c1.584,2.07,3.864,1.289,5.868,1.3C206.139,525.814,217.436,525.8,228.734,525.818Z" transform="translate(37.717 170.724)"/><path class="mobile-app-a" d="M280.49,525.8a1.122,1.122,0,0,1-.384.97h-38.36l2.4-2.195c3.352,2.125,7.056.869,10.579.976C263.307,525.8,271.9,525.735,280.49,525.8Z" transform="translate(93.152 170.875)"/><path class="mobile-app-a" d="M545.184,526.028l.028,1.172H509.177l2.335-2.305c10-1.3,20.029-.55,30.047-.428A4.772,4.772,0,0,1,545.184,526.028Z" transform="translate(362.745 170.441)"/><path class="mobile-app-a" d="M352.308,526.758l2.412-2.177c5.954,2.291,12.135.546,18.2.98,3.643.263,7.317.1,10.976.133a4.812,4.812,0,0,1-.2,1.064Z" transform="translate(204.608 170.884)"/><path class="mobile-app-a" d="M407.878,527.185a3.028,3.028,0,0,1,2.165-2.576c6.43-.741,12.878-.359,19.32-.315,2.062.012,4.229.044,5.693,1.95a.9.9,0,0,1-.444.942Z" transform="translate(260.627 170.456)"/><path class="mobile-app-a" d="M79.9,707.286a480.73,480.73,0,0,1-4.918-48.264c-.189-3.3,1.809-4.875,3.7-6.763q53.426-53.375,106.856-106.752,69.047-68.978,138.026-138.022c3.317-3.329,5.729-4.992,8.8-.193,3.39,5.3,6.1,3.763,9.968-.113Q454.561,294.714,567,182.448c2.823-2.823,5.574-4.183,9.607-4,6.874.321,13.773.088,21.822.088-2.247,2.349-3.629,3.851-5.07,5.291Q474.788,302.289,356.221,420.745c-2.695,2.693-7.161,5.2-1.255,9.167,1.243.833.849,1.96-.112,2.9-.691.677-1.363,1.374-2.048,2.058Q218,569.538,83.184,704.2C82.383,705,81.536,705.752,79.9,707.286Z" transform="translate(-74.971 -178.06)"/><path class="mobile-app-a" d="M75.2,604.546a491.061,491.061,0,0,1,8.569-65.12,12.862,12.862,0,0,1,3.765-6.912q90.677-90.493,181.2-181.143c3.335-3.345,4.866-2.592,7.629.3,6.849,7.169,6.978,7.044,13.958.07,53.708-53.654,107.643-107.083,160.9-161.183,8.771-8.91,17.358-13.874,29.68-11.866a44.9,44.9,0,0,0,6.115.036c-2.325,2.464-3.813,4.123-5.388,5.695Q390.8,275.178,299.894,365.855c-3.416,3.4-5.151,5.86-.285,9.209,4.094,2.815.833,4.743-1.1,6.677Q250.219,430,201.912,478.233,141.278,538.792,80.638,599.343C79.168,600.813,77.636,602.22,75.2,604.546Z" transform="translate(-74.736 -178.248)"/><path class="mobile-app-a" d="M433.969,660.707c-6.568-.074-13.137-.116-19.7-.239-1.854-.036-3.944.59-5.309-1.4q11.609-11.781,23.205-23.565c1.4-1.428,3.868-2.865.9-4.968-3.783-2.683-2.195-4.552.363-7.1q46.345-46.083,92.516-92.336Q593.758,463.362,661.557,395.6c1.5-1.5,2.723-3.275,4-4.832,2.384,1.588,1.558,3.291,1.566,4.675.068,15.486-.036,30.977.108,46.463a9.674,9.674,0,0,1-3.171,7.585Q562.679,550.625,461.485,651.95c-2.982,2.988-4.544,2.715-7.229-.147-5.287-5.641-5.424-5.464-11.07.111C440.166,654.9,437.045,657.78,433.969,660.707Z" transform="translate(261.714 35.992)"/><path class="mobile-app-a" d="M345.142,185.64c-.247,3.741-2.386,4.749-3.807,6.173Q285.493,247.7,229.47,303.4c-3.779,3.739-3.843,5.934.231,8.761,4.372,3.036,3.918,5.482.122,9.249Q162.2,388.528,94.9,455.956c-1.382,1.379-2.468,3.339-5.356,3.835,24.989-65.357,60.6-123.1,110.069-172.02,2.414-2.388,3.691-2.219,5.906.1,3.038,3.185,5.852,8.639,9.635,8.552,4.107-.094,6.852-5.635,10.1-8.868,23.346-23.209,46.947-46.176,69.753-69.9a113.3,113.3,0,0,1,36.24-25.432C335.742,190.226,340.132,188.022,345.142,185.64Z" transform="translate(-60.275 -170.797)"/><path class="mobile-app-a" d="M515.1,606.969q-26.371.027-52.744.032c-1.847,0-3.936.615-5.333-1.335,2.121-2.241,4.187-4.536,6.368-6.717q75.2-75.167,150.392-150.351c1.3-1.307,2.042-3.181,3.044-4.789l1.888,1.3c0,13.657-.914,27.394.263,40.949,1.123,12.938-3.353,21.711-12.647,30.607-29.372,28.121-57.764,57.264-86.55,86C518.279,604.16,516.661,605.537,515.1,606.969Z" transform="translate(310.168 89.458)"/><path class="mobile-app-a" d="M544.012,552.375c-9.422.006-18.844.042-28.264-.01-1.844-.012-3.9.643-5.408-1.122q27.211-26.6,54.467-53.236c.157,6.841.727,13.8-2.94,20.737C555.933,529.963,550.847,541.629,544.012,552.375Z" transform="translate(363.917 144.094)"/></g></g></svg>