<svg xmlns="http://www.w3.org/2000/svg" xmlns:xlink="http://www.w3.org/1999/xlink" width="19.336" height="22" viewBox="0 0 19.336 22"><defs><style>.a{fill:url(#a);}</style><linearGradient id="a" x1="0.5" y1="1" x2="0.5" gradientUnits="objectBoundingBox"><stop offset="0" stop-color="#2e314c"/><stop offset="1" stop-color="#121634"/></linearGradient></defs><g transform="translate(0)"><path class="a" d="M49.691,2.578A1.936,1.936,0,0,1,47.758.645.645.645,0,0,0,47.113,0H34.223a.645.645,0,0,0-.645.645,1.936,1.936,0,0,1-1.934,1.934A.645.645,0,0,0,31,3.223v7.82a9.572,9.572,0,0,0,1.511,5.22,12.282,12.282,0,0,0,3.271,3.361A15.552,15.552,0,0,0,40.668,22a15.527,15.527,0,0,0,4.886-2.376,12.281,12.281,0,0,0,3.271-3.361,9.572,9.572,0,0,0,1.511-5.22V3.223A.645.645,0,0,0,49.691,2.578Zm-1.934,8.465A7.5,7.5,0,0,1,45,16.8a13.936,13.936,0,0,1-4.1,2.434.645.645,0,0,1-.465,0,14.029,14.029,0,0,1-4.1-2.437,7.5,7.5,0,0,1-2.763-5.75V5.109a.644.644,0,0,1,.321-.557A4.558,4.558,0,0,0,35.552,2.9a.644.644,0,0,1,.557-.321h9.118a.645.645,0,0,1,.558.321,4.557,4.557,0,0,0,1.652,1.652.645.645,0,0,1,.321.557Zm-7.09-5.156A4.512,4.512,0,1,0,45.18,10.4,4.517,4.517,0,0,0,40.668,5.887Zm1.874,4-1.934,1.934a.645.645,0,0,1-.911,0l-.967-.967a.645.645,0,1,1,.911-.911l.511.511L41.63,8.976a.645.645,0,1,1,.911.911Z" transform="translate(-31)"/></g></svg>