<svg xmlns="http://www.w3.org/2000/svg" width="22.163" height="278" viewBox="0 0 22.163 278"><defs><style>.side-ribbon-a{fill:#fff;stroke:#fff;}.side-ribbon-b{fill:#272727;}.side-ribbon-c{stroke:none;}.side-ribbon-d{fill:none;}</style></defs><g transform="translate(-245 -3924)"><g class="side-ribbon-a" transform="translate(245 3924)"><rect class="side-ribbon-c" width="22" height="278"/><rect class="side-ribbon-d" x="0.5" y="0.5" width="21" height="277"/></g><path class="side-ribbon-b" d="M252.639,4202,267,4189.231V4202Z"/><path class="side-ribbon-b" d="M245,4190.125v-14.839l22.163-17.707v14.794Z" transform="translate(0 4)"/><path class="side-ribbon-b" d="M245,4190.125v-14.839l22.163-17.707v14.794Z" transform="translate(0 -24)"/><path class="side-ribbon-b" d="M245,4190.125v-14.839l22.163-17.707v14.794Z" transform="translate(0 -53)"/><path class="side-ribbon-b" d="M245,4190.125v-14.839l22.163-17.707v14.794Z" transform="translate(0 -81)"/><path class="side-ribbon-b" d="M245,4190.125v-14.839l22.163-17.707v14.794Z" transform="translate(0 -110.852)"/><path class="side-ribbon-b" d="M245,4190.125v-14.839l22.163-17.707v14.794Z" transform="translate(0 -138.852)"/><path class="side-ribbon-b" d="M245,4190.125v-14.839l22.163-17.707v14.794Z" transform="translate(0 -168.852)"/><path class="side-ribbon-b" d="M245,4190.125v-14.839l22.163-17.707v14.794Z" transform="translate(0 -196.852)"/><path class="side-ribbon-b" d="M245,4190.125v-14.839l22.163-17.707v14.794Z" transform="translate(0 -226.852)"/><path class="side-ribbon-b" d="M252.639,4202,267,4189.231V4202Z" transform="translate(512 8126) rotate(180)"/></g></svg>