<svg xmlns="http://www.w3.org/2000/svg" width="120" height="54" viewBox="0 0 120 54"><defs><style>.star-dotted-a{opacity:0.445;}.star-dotted-b{fill:#43475f;}</style></defs><g transform="translate(-152 -1143)"><g class="star-dotted-a" transform="translate(61 9)"><rect class="star-dotted-b" width="5" height="5" transform="translate(96 1134)"/><rect class="star-dotted-b" width="5" height="5" transform="translate(101 1139)"/><rect class="star-dotted-b" width="5" height="5" transform="translate(96 1144)"/><rect class="star-dotted-b" width="5" height="5" transform="translate(91 1139)"/></g><g class="star-dotted-a" transform="translate(96 9)"><rect class="star-dotted-b" width="5" height="5" transform="translate(96 1134)"/><rect class="star-dotted-b" width="5" height="5" transform="translate(101 1139)"/><rect class="star-dotted-b" width="5" height="5" transform="translate(96 1144)"/><rect class="star-dotted-b" width="5" height="5" transform="translate(91 1139)"/></g><g class="star-dotted-a" transform="translate(131 9)"><rect class="star-dotted-b" width="5" height="5" transform="translate(96 1134)"/><rect class="star-dotted-b" width="5" height="5" transform="translate(101 1139)"/><rect class="star-dotted-b" width="5" height="5" transform="translate(96 1144)"/><rect class="star-dotted-b" width="5" height="5" transform="translate(91 1139)"/></g><g class="star-dotted-a" transform="translate(166 9)"><rect class="star-dotted-b" width="5" height="5" transform="translate(96 1134)"/><rect class="star-dotted-b" width="5" height="5" transform="translate(101 1139)"/><rect class="star-dotted-b" width="5" height="5" transform="translate(96 1144)"/><rect class="star-dotted-b" width="5" height="5" transform="translate(91 1139)"/></g><g class="star-dotted-a" transform="translate(61 48)"><rect class="star-dotted-b" width="5" height="5" transform="translate(96 1134)"/><rect class="star-dotted-b" width="5" height="5" transform="translate(101 1139)"/><rect class="star-dotted-b" width="5" height="5" transform="translate(96 1144)"/><rect class="star-dotted-b" width="5" height="5" transform="translate(91 1139)"/></g><g transform="translate(96 48)"><rect class="star-dotted-b" width="5" height="5" transform="translate(96 1134)"/><rect class="star-dotted-b" width="5" height="5" transform="translate(101 1139)"/><rect class="star-dotted-b" width="5" height="5" transform="translate(96 1144)"/><rect class="star-dotted-b" width="5" height="5" transform="translate(91 1139)"/></g><g class="star-dotted-a" transform="translate(131 48)"><rect class="star-dotted-b" width="5" height="5" transform="translate(96 1134)"/><rect class="star-dotted-b" width="5" height="5" transform="translate(101 1139)"/><rect class="star-dotted-b" width="5" height="5" transform="translate(96 1144)"/><rect class="star-dotted-b" width="5" height="5" transform="translate(91 1139)"/></g><g class="star-dotted-a" transform="translate(166 48)"><rect class="star-dotted-b" width="5" height="5" transform="translate(96 1134)"/><rect class="star-dotted-b" width="5" height="5" transform="translate(101 1139)"/><rect class="star-dotted-b" width="5" height="5" transform="translate(96 1144)"/><rect class="star-dotted-b" width="5" height="5" transform="translate(91 1139)"/></g></g></svg>